# xmcd
#
# Track frame offsets: 
#        150
#        34484
#        61933
#        121061
#        144658
#        187708
#        200819
#        230209
#        244847
#        272287
#        290629
#
# Disc length: 4227 seconds
#
# Revision: 0
# Processed by: cddbd v1.5.2PL0 Copyright (c) Steve Scherf et al.
# Submitted via: ExactAudioCopy v1.0b1
#
DISCID=a610810b
DTITLE=Eric Clapton  - Remarkable Milestone - Royal Albert Hall  5-20-
DTITLE=09l - Disc 3
DYEAR=1900
DGENRE=
TTITLE0=Going Down Slow
TTITLE1=Key To The Highway
TTITLE2=Old Love
TTITLE3=Anything For Your Love
TTITLE4=I Shot The Sheriff
TTITLE5=Three Little Girls
TTITLE6=Layla
TTITLE7=Nobody Knows You When You’re Down And Out
TTITLE8=Not Dark Yet
TTITLE9=Anything For You
TTITLE10=Somewhere Over The Rainbow
EXTD=
EXTT0=
EXTT1=
EXTT2=
EXTT3=
EXTT4=
EXTT5=
EXTT6=
EXTT7=
EXTT8=
EXTT9=
EXTT10=
PLAYORDER=
